<svg width="48" height="50" viewBox="0 0 48 50" fill="none" xmlns="http://www.w3.org/2000/svg">
<g id="[2023 Version] IOT Global Logo 1">
<g id="Group">
<g id="Group_2">
<path id="Vector" d="M38.8866 27.8901C36.7858 27.8901 35.1051 29.599 35.1051 31.6876C35.1051 33.7973 36.8068 35.4851 38.8866 35.4851C40.9874 35.4851 42.6681 33.7762 42.6681 31.6876C42.6681 29.599 40.9874 27.8901 38.8866 27.8901Z" fill="#C76478"/>
</g>
<g id="Group_3">
<g id="Group_4">
<path id="Vector_2" d="M38.8866 20.2109C40.9874 20.2109 42.6681 18.5021 42.6681 16.4134C42.6681 14.3037 40.9664 12.616 38.8866 12.616H35.1051V8.8607C35.1051 6.751 33.4034 5.06323 31.3236 5.06323C29.2228 5.06323 27.5421 6.77209 27.5421 8.8607V12.616H23.7606C23.2354 12.616 22.7312 12.7215 22.29 12.9113C27.4581 13.9873 31.3446 18.5864 31.3446 24.0928C31.3446 27.4261 29.9161 30.4219 27.6472 32.5105C28.0253 34.2194 29.5379 35.4852 31.3446 35.4852C33.4455 35.4852 35.1261 33.7763 35.1261 31.6877V20.2109H38.8866Z" fill="#C76478"/>
</g>
<g id="Group_5">
<path id="Vector_3" d="M27.5421 20.2108H23.7606C21.6598 20.2108 19.9791 18.502 19.9791 16.4134C19.9791 14.8311 20.9245 13.4809 22.29 12.9113C21.5547 12.7636 20.7774 12.6792 19.9791 12.6792C16.2606 12.6792 12.9623 14.4724 10.8825 17.2362C11.8069 17.9324 12.3951 19.0294 12.3951 20.2741V31.6876C12.3951 31.9619 12.3741 32.2362 12.3111 32.5104C14.3279 34.367 17.0169 35.4851 19.9791 35.4851C22.9413 35.4851 25.6303 34.3459 27.6471 32.5104C27.5841 32.2573 27.5631 31.983 27.5631 31.6876L27.5421 20.2108ZM19.9581 27.8902C17.8783 27.8902 16.1766 26.1813 16.1766 24.0927C16.1766 21.983 17.8783 20.2952 19.9581 20.2952C22.0379 20.2952 23.7396 22.0041 23.7396 24.0927C23.7606 26.1813 22.0589 27.8902 19.9581 27.8902Z" fill="#32B3C7"/>
</g>
<g id="Group_6">
<path id="Vector_4" d="M31.3236 24.0716C31.3236 18.5652 27.437 13.9661 22.269 12.8901C20.9034 13.4598 19.9581 14.81 19.9581 16.3922C19.9581 18.502 21.6597 20.1897 23.7396 20.1897H27.5211V31.6665C27.5211 31.9408 27.5631 32.215 27.6051 32.4893C29.895 30.4218 31.3236 27.4049 31.3236 24.0716Z" fill="#C76478"/>
</g>
<g id="Group_7">
<path id="Vector_5" d="M31.3236 24.0716C31.3236 18.5652 27.437 13.9661 22.269 12.8901C20.9034 13.4598 19.9581 14.81 19.9581 16.3922C19.9581 18.502 21.6597 20.1897 23.7396 20.1897H27.5211V31.6665C27.5211 31.9408 27.5631 32.215 27.6051 32.4893C29.895 30.4218 31.3236 27.4049 31.3236 24.0716Z" fill="#284664"/>
</g>
<g id="Group_8">
<path id="Vector_6" d="M8.6136 13.945C10.6934 13.945 12.3951 12.2362 12.3951 10.1476C12.3951 8.03786 10.6934 6.3501 8.6136 6.3501C6.51277 6.3501 4.8321 8.05896 4.8321 10.1476C4.81109 12.2362 6.51277 13.945 8.6136 13.945Z" fill="#F9A95A"/>
</g>
<g id="Group_9">
<path id="Vector_7" d="M8.61359 24.0717C8.61359 21.4979 9.45392 19.135 10.8825 17.2363C10.2522 16.7511 9.45392 16.4768 8.61359 16.4768C6.51276 16.4768 4.83209 18.1857 4.83209 20.2743V31.6878C4.83209 33.7975 6.53377 35.4852 8.61359 35.4852C10.4203 35.4852 11.9329 34.1983 12.3111 32.5106C10.0211 30.422 8.61359 27.4051 8.61359 24.0717Z" fill="#F9A95A"/>
</g>
<g id="Group_10">
<path id="Vector_8" d="M12.3951 20.2743C12.3951 19.0296 11.8069 17.9325 10.8825 17.2363C9.45392 19.1351 8.61359 21.519 8.61359 24.0718C8.61359 27.4051 10.0422 30.4009 12.3111 32.4895C12.3741 32.2363 12.3951 31.9621 12.3951 31.6667V20.2743Z" fill="#32B3C7"/>
</g>
<g id="Group_11">
<path id="Vector_9" d="M12.3951 20.2743C12.3951 19.0296 11.8069 17.9325 10.8825 17.2363C9.45392 19.1351 8.61359 21.519 8.61359 24.0718C8.61359 27.4051 10.0422 30.4009 12.3111 32.4895C12.3741 32.2363 12.3951 31.9621 12.3951 31.6667V20.2743Z" fill="#327846"/>
</g>
</g>
</g>
<g id="Group 1">
<path id="Vector_10" d="M6.84871 40.5907C7.03778 40.7173 7.18484 40.865 7.26887 41.097C7.35291 41.3291 7.41593 41.5612 7.41593 41.8354C7.41593 42.1308 7.37392 42.3839 7.26887 42.5949C7.16383 42.8059 7.01677 42.9747 6.84871 43.1012C6.65963 43.2278 6.44955 43.2911 6.21846 43.2911C6.00838 43.2911 5.8193 43.2489 5.65123 43.1434C5.48317 43.0379 5.37813 42.9114 5.29409 42.7426V43.059C5.29409 43.1223 5.27308 43.1856 5.23107 43.2278C5.18905 43.27 5.14703 43.2911 5.063 43.2911C4.97897 43.2911 4.93695 43.27 4.89493 43.2278C4.85292 43.1856 4.83191 43.1223 4.83191 43.059V39.4725C4.83191 39.4093 4.85292 39.3671 4.89493 39.3038C4.93695 39.2405 4.99998 39.2405 5.063 39.2405C5.12603 39.2405 5.18905 39.2616 5.23107 39.3038C5.27308 39.346 5.29409 39.3882 5.29409 39.4725V40.9915C5.37813 40.8228 5.50418 40.6751 5.65123 40.5907C5.79829 40.5063 5.98737 40.443 6.21846 40.443C6.44955 40.4008 6.65963 40.4641 6.84871 40.5907ZM6.72266 42.5949C6.86972 42.405 6.95375 42.1519 6.95375 41.8143C6.95375 41.4768 6.86972 41.2236 6.72266 41.0548C6.5756 40.865 6.36552 40.7806 6.09241 40.7806C5.8193 40.7806 5.63023 40.865 5.48317 41.0548C5.33611 41.2447 5.27308 41.4979 5.27308 41.8354C5.27308 42.173 5.33611 42.4261 5.48317 42.616C5.63023 42.8059 5.84031 42.8903 6.09241 42.8903C6.38652 42.8692 6.59661 42.7848 6.72266 42.5949Z" fill="#63636B"/>
<path id="Vector_11" d="M10.231 40.422C10.294 40.422 10.3361 40.4431 10.3781 40.4853C10.4201 40.5275 10.4411 40.5697 10.4411 40.6329C10.4411 40.6751 10.4411 40.6962 10.4201 40.7173L8.82346 44.1351C8.80245 44.1772 8.78145 44.2194 8.73943 44.2405C8.69741 44.2616 8.6764 44.2827 8.63439 44.2827C8.57136 44.2827 8.52935 44.2616 8.48733 44.2194C8.44531 44.1773 8.42431 44.1351 8.42431 44.0718C8.42431 44.0507 8.4243 44.0085 8.44531 43.9874L8.84447 43.1224L7.73103 40.6962C7.71002 40.6751 7.71002 40.6329 7.71002 40.6118C7.71002 40.5486 7.73103 40.5064 7.79406 40.4642C7.85708 40.422 7.8991 40.4009 7.96212 40.4009C8.00414 40.4009 8.04616 40.4009 8.06716 40.4431C8.08817 40.4853 8.13019 40.5064 8.1512 40.5486L9.09657 42.6794L10.0419 40.5697C10.063 40.4642 10.147 40.422 10.231 40.422Z" fill="#63636B"/>
<path id="Vector_12" d="M21.1554 39.8311C21.0923 39.7678 21.0083 39.7256 20.9243 39.7256C20.8402 39.7256 20.7352 39.7678 20.6722 39.8311C20.6092 39.8944 20.5671 39.9787 20.5671 40.0631V42.8269C20.5671 43.0167 20.7142 43.1644 20.8823 43.1644H20.9033C20.9873 43.1644 21.0713 43.1222 21.1344 43.0589C21.1974 42.9956 21.2394 42.9112 21.2394 42.8269V40.0631C21.2604 39.9998 21.2184 39.8944 21.1554 39.8311Z" fill="#63636B"/>
<path id="Vector_13" d="M23.8025 40.8228C23.6764 40.6118 23.4453 40.5063 23.1092 40.5063C22.9411 40.5063 22.773 40.5485 22.626 40.6329C22.5209 40.6962 22.4369 40.7595 22.3529 40.8439C22.3529 40.7595 22.3109 40.6962 22.2688 40.654C22.1428 40.5274 21.9327 40.5274 21.8067 40.654C21.7436 40.7173 21.7016 40.8017 21.7226 40.8861V42.8481C21.7226 42.9325 21.7436 43.0169 21.8067 43.0802C21.9327 43.2068 22.1428 43.2068 22.2688 43.0802C22.3319 43.0169 22.3739 42.9325 22.3529 42.8481V41.6456C22.3529 41.4979 22.3949 41.3713 22.4999 41.2869C22.584 41.1815 22.731 41.1393 22.8991 41.1393C23.0672 41.1393 23.1722 41.1815 23.2352 41.2658C23.2983 41.3502 23.3403 41.4768 23.3403 41.6456V42.8481C23.3403 42.9325 23.3613 43.0169 23.4243 43.0802C23.5504 43.2068 23.7604 43.2068 23.8865 43.0802C23.9495 43.0169 23.9915 42.9325 23.9705 42.8481V41.6456C23.9915 41.2869 23.9285 41.0127 23.8025 40.8228Z" fill="#63636B"/>
<path id="Vector_14" d="M25.6722 42.5527C25.6302 42.5527 25.5882 42.5527 25.5461 42.5738C25.5251 42.5738 25.4831 42.5949 25.4621 42.5949C25.4201 42.5949 25.3781 42.5949 25.3571 42.5527C25.3361 42.5316 25.3151 42.4894 25.3151 42.4472V41.2025H25.6092C25.6932 41.2025 25.7772 41.1814 25.8193 41.1181C25.8823 41.0548 25.9033 40.9915 25.9033 40.9071C25.9033 40.7384 25.7772 40.5907 25.6092 40.5907C25.6092 40.5907 25.6092 40.5907 25.5882 40.5907H25.294V40.3375C25.294 40.2531 25.273 40.0211 25.21 39.9578C25.147 39.8945 25.063 39.8523 24.9789 39.8523C24.8949 39.8523 24.8109 39.8945 24.7478 39.9578C24.6848 40.0211 24.6428 40.232 24.6428 40.3375V40.5907H24.4747C24.3907 40.5907 24.3067 40.6118 24.2646 40.6751C24.2016 40.7384 24.1806 40.8017 24.1806 40.8861C24.1806 41.0548 24.3067 41.2025 24.4747 41.2025C24.4747 41.2025 24.4747 41.2025 24.4957 41.2025H24.6638V42.4683C24.6638 42.7637 24.7478 42.9536 24.8949 43.038C25.0419 43.1223 25.231 43.1856 25.4201 43.1645C25.5461 43.1645 25.6512 43.1434 25.7562 43.0801C25.8613 43.0169 25.9243 42.9325 25.9243 42.827C25.9243 42.7637 25.9033 42.6793 25.8613 42.6371C25.7772 42.5949 25.7352 42.5527 25.6722 42.5527Z" fill="#63636B"/>
<path id="Vector_15" d="M28.3402 41.1181C28.2352 40.9282 28.0671 40.7595 27.878 40.6329C27.689 40.5274 27.4789 40.4641 27.2688 40.4641C27.0587 40.4641 26.8486 40.5274 26.6596 40.6329C26.4705 40.7595 26.3024 40.9282 26.1974 41.1181C26.0713 41.3502 26.0083 41.6033 26.0293 41.8565C26.0293 42.0886 26.0923 42.3207 26.1974 42.5316C26.3024 42.7215 26.4705 42.8903 26.6596 42.9958C27.0167 43.1856 27.4369 43.2278 27.836 43.0801C27.9621 43.0379 28.0881 42.9747 28.1932 42.8903C28.2982 42.8059 28.3402 42.7215 28.3402 42.616C28.3402 42.5316 28.3192 42.4683 28.2562 42.4261C28.1512 42.3207 28.0251 42.3206 27.878 42.3839C27.857 42.3839 27.836 42.405 27.794 42.4472C27.752 42.4683 27.689 42.5105 27.6259 42.5105C27.5419 42.5316 27.4369 42.5527 27.3318 42.5527C27.1848 42.5527 27.0167 42.5105 26.9117 42.405C26.8066 42.3207 26.7226 42.1941 26.6806 42.0464H28.1722C28.2562 42.0464 28.3402 42.0253 28.4033 41.962C28.4663 41.8987 28.5083 41.8354 28.5083 41.751C28.5083 41.5401 28.4453 41.308 28.3402 41.1181ZM27.2688 41.0759C27.3949 41.0759 27.5419 41.1181 27.6259 41.2025C27.731 41.2658 27.794 41.3713 27.794 41.4979H26.6596C26.7646 41.2025 26.9537 41.0759 27.2688 41.0759Z" fill="#63636B"/>
<path id="Vector_16" d="M30.399 40.6117C30.315 40.5484 30.231 40.5273 30.1259 40.5273C29.9789 40.5273 29.8108 40.5695 29.6638 40.6328C29.5587 40.675 29.4747 40.7594 29.4117 40.8438C29.3906 40.7805 29.3696 40.7172 29.3276 40.675C29.2016 40.5484 28.9915 40.5484 28.8654 40.675C28.8024 40.7383 28.7604 40.8227 28.7814 40.9071V42.8691C28.7814 42.9535 28.8024 43.0379 28.8654 43.1012C28.9915 43.2278 29.2016 43.2278 29.3276 43.1012C29.3906 43.0379 29.4327 42.9535 29.4117 42.8691V41.751C29.4117 41.6244 29.4327 41.5189 29.4747 41.4134C29.5167 41.329 29.5797 41.2657 29.6427 41.2024C29.7058 41.1603 29.7688 41.1392 29.8528 41.1392C29.8948 41.1392 29.9159 41.1392 29.9369 41.1603C29.9789 41.1603 29.9999 41.1814 29.9999 41.1814C30.168 41.2446 30.294 41.2235 30.378 41.1392C30.4411 41.0759 30.4621 40.9915 30.4621 40.886C30.5041 40.7383 30.4621 40.6539 30.399 40.6117Z" fill="#63636B"/>
<path id="Vector_17" d="M33.4032 41.3924C33.3402 41.3291 33.2561 41.2869 33.1721 41.2869H32.4158C32.3318 41.2869 32.2477 41.308 32.1847 41.3713C32.0587 41.4978 32.0587 41.7088 32.1847 41.8354C32.2477 41.8987 32.3318 41.9198 32.4158 41.9198H32.815V42.4472C32.7519 42.4683 32.6679 42.4894 32.5839 42.4894C32.4998 42.5105 32.3948 42.5105 32.3108 42.5105C32.1217 42.5105 31.9536 42.4683 31.7856 42.3628C31.2814 42.0464 31.1133 41.3924 31.4074 40.8649C31.4914 40.7172 31.6175 40.5907 31.7856 40.4852C31.9536 40.3797 32.1217 40.3375 32.3108 40.3375C32.4788 40.3375 32.6469 40.3797 32.815 40.443C32.983 40.5063 33.1091 40.4852 33.2141 40.3797C33.2772 40.3164 33.2982 40.232 33.2982 40.1476C33.2982 40.0843 33.2772 40.0421 33.2561 40C33.2351 39.9578 33.1931 39.9156 33.1301 39.8945C32.899 39.7679 32.6259 39.7046 32.3108 39.7046C31.7015 39.7046 31.1133 40.021 30.7982 40.5696C30.483 41.097 30.483 41.7721 30.7982 42.2995C30.9452 42.5527 31.1763 42.7848 31.4284 42.9324C31.7015 43.0801 31.9956 43.1645 32.2898 43.1645C32.6469 43.1645 33.004 43.059 33.3192 42.8691C33.4242 42.8059 33.4872 42.7004 33.4872 42.5738V41.5822C33.5082 41.54 33.4662 41.4556 33.4032 41.3924Z" fill="#63636B"/>
<path id="Vector_18" d="M35.42 40.6117C35.336 40.5484 35.2519 40.5273 35.1469 40.5273C34.9998 40.5273 34.8318 40.5695 34.6847 40.6328C34.5797 40.675 34.4956 40.7594 34.4326 40.8438C34.3906 40.675 34.2225 40.5484 34.0334 40.5906C33.9704 40.6117 33.9074 40.6328 33.8654 40.675C33.8024 40.7383 33.7603 40.8227 33.7813 40.9071V42.8691C33.7813 42.9535 33.8024 43.0379 33.8654 43.1012C33.9914 43.2278 34.2015 43.2278 34.3276 43.1012C34.3906 43.0379 34.4326 42.9535 34.4116 42.8691V41.751C34.4116 41.6244 34.4326 41.5189 34.4746 41.4134C34.5166 41.329 34.5797 41.2657 34.6427 41.2024C34.7057 41.1603 34.7687 41.1392 34.8528 41.1392C34.8948 41.1392 34.9158 41.1392 34.9368 41.1603C34.9788 41.1603 34.9998 41.1814 34.9998 41.1814C35.1679 41.2446 35.2939 41.2235 35.378 41.1392C35.441 41.0759 35.462 40.9915 35.462 40.886C35.546 40.7383 35.504 40.6539 35.42 40.6117Z" fill="#63636B"/>
<path id="Vector_19" d="M37.815 41.1181C37.7099 40.9282 37.5418 40.7595 37.3528 40.6329C37.1637 40.5274 36.9536 40.4641 36.7435 40.4641C36.5334 40.4641 36.3234 40.5274 36.1343 40.6329C35.9452 40.7595 35.7771 40.9282 35.6721 41.1181C35.5461 41.3502 35.483 41.6033 35.504 41.8565C35.504 42.0886 35.5671 42.3207 35.6721 42.5316C35.7771 42.7215 35.9452 42.8903 36.1343 42.9958C36.4914 43.1856 36.9116 43.2278 37.3108 43.0801C37.4368 43.0379 37.5629 42.9747 37.6679 42.8903C37.7729 42.8059 37.815 42.7215 37.815 42.616C37.815 42.5316 37.7939 42.4683 37.7309 42.4261C37.6259 42.3207 37.4998 42.3206 37.3528 42.3839C37.3318 42.3839 37.3108 42.405 37.2687 42.4472C37.2267 42.4683 37.1637 42.5105 37.1007 42.5105C37.0166 42.5316 36.9116 42.5527 36.8066 42.5527C36.6595 42.5527 36.4914 42.4894 36.3864 42.405C36.2813 42.3207 36.1973 42.1941 36.1553 42.0464H37.6469C37.7309 42.0464 37.815 42.0253 37.878 41.962C37.941 41.8987 37.983 41.8354 37.983 41.751C37.983 41.5401 37.92 41.308 37.815 41.1181ZM36.7435 41.0759C36.8696 41.0759 37.0166 41.1181 37.1217 41.2025C37.2267 41.2658 37.2897 41.3713 37.2897 41.4979H36.1553C36.2183 41.2025 36.4284 41.0759 36.7435 41.0759Z" fill="#63636B"/>
<path id="Vector_20" d="M40.5671 40.6328C40.504 40.5695 40.42 40.5484 40.336 40.5484C40.1889 40.5484 40.0629 40.6539 40.0209 40.7805C39.9368 40.7172 39.8528 40.6539 39.7477 40.6117C39.6217 40.5484 39.4746 40.5273 39.3276 40.5273C39.1175 40.5273 38.9074 40.5906 38.7393 40.6961C38.5503 40.8227 38.4242 40.9704 38.3192 41.1603C38.2141 41.3712 38.1721 41.6033 38.1721 41.8354C38.1721 42.0674 38.2141 42.2995 38.3192 42.5105C38.4242 42.7003 38.5503 42.8691 38.7393 42.9746C38.9074 43.0801 39.1175 43.1434 39.3276 43.1434C39.4746 43.1434 39.6217 43.1012 39.7477 43.0379C39.8528 42.9957 39.9368 42.9324 39.9998 42.8691C40.0209 42.9113 40.0419 42.9746 40.0839 42.9957C40.1469 43.059 40.2309 43.0801 40.315 43.0801C40.399 43.0801 40.483 43.0379 40.5461 42.9957C40.6091 42.9324 40.6301 42.848 40.6301 42.7636V40.8227C40.6721 40.7805 40.6301 40.6961 40.5671 40.6328ZM40.0419 41.8565C40.0419 42.0674 39.9788 42.2362 39.8738 42.3839C39.7687 42.5105 39.6007 42.5949 39.4116 42.5949C39.2435 42.5949 39.0755 42.5316 38.9704 42.3839C38.8444 42.2362 38.8024 42.0674 38.8024 41.8565C38.8024 41.6455 38.8654 41.4767 38.9704 41.329C39.1805 41.0759 39.5587 41.0548 39.8108 41.2657C39.8318 41.2868 39.8528 41.3079 39.8738 41.329C39.9788 41.4767 40.0419 41.6455 40.0419 41.8565Z" fill="#63636B"/>
<path id="Vector_21" d="M42.3528 42.5527C42.3108 42.5527 42.2688 42.5527 42.2267 42.5738C42.2057 42.5738 42.1637 42.5949 42.1427 42.5949C42.1007 42.5949 42.0587 42.5949 42.0377 42.5527C42.0167 42.5316 41.9957 42.4894 41.9957 42.4472V41.2025H42.2898C42.3738 41.2025 42.4578 41.1814 42.4999 41.1181C42.5629 41.0548 42.5839 40.9915 42.5839 40.9071C42.5839 40.7384 42.4578 40.5907 42.2898 40.5907C42.2898 40.5907 42.2898 40.5907 42.2688 40.5907H41.9746V40.1898C41.9746 40.1055 41.9536 40.0211 41.8906 39.9578C41.8276 39.8945 41.7436 39.8523 41.6595 39.8523C41.4704 39.8523 41.3234 40 41.3234 40.1688C41.3234 40.1688 41.3234 40.1688 41.3234 40.1898V40.5907H41.1553C41.0713 40.5907 40.9873 40.6118 40.9452 40.6751C40.8822 40.7384 40.8612 40.8017 40.8612 40.8861C40.8612 41.0548 40.9873 41.2025 41.1553 41.2025C41.1553 41.2025 41.1553 41.2025 41.1763 41.2025H41.3444V42.4683C41.3444 42.7637 41.4284 42.9536 41.5755 43.038C41.7225 43.1223 41.9116 43.1856 42.1007 43.1645C42.2267 43.1645 42.3318 43.1434 42.4368 43.0801C42.5419 43.0169 42.6049 42.9325 42.6049 42.827C42.6049 42.7637 42.5839 42.6793 42.5419 42.6371C42.4578 42.5949 42.3948 42.5527 42.3528 42.5527Z" fill="#63636B"/>
<g id="Group_12">
<path id="Vector_22" d="M15.3991 38.0168C13.5084 38.0168 11.9537 39.578 11.9537 41.4768C11.9537 43.3755 13.5084 44.9367 15.3991 44.9367C17.2898 44.9367 18.8445 43.3755 18.8445 41.4768C18.8445 39.578 17.2898 38.0168 15.3991 38.0168ZM15.3991 44.6835C13.6344 44.6835 12.2058 43.2489 12.2058 41.4768C12.2058 39.7046 13.6344 38.27 15.3991 38.27C17.1638 38.27 18.5924 39.7046 18.5924 41.4768C18.5924 43.2489 17.1638 44.6835 15.3991 44.6835Z" fill="#908F9C"/>
<path id="Vector_23" d="M15.3991 38.5864C13.8235 38.5864 12.563 39.8733 12.563 41.4345C12.563 43.0168 13.8445 44.2826 15.3991 44.2826C16.9747 44.2826 18.2352 42.9957 18.2352 41.4345C18.2352 39.8733 16.9747 38.5864 15.3991 38.5864ZM16.1344 41.9409C16.1344 42.616 15.5882 43.1645 14.9159 43.1645C14.2437 43.1645 13.6974 42.616 13.6974 41.9409C13.6974 41.8143 13.8025 41.6877 13.9495 41.6877C14.0756 41.6877 14.2016 41.7932 14.2016 41.9409C14.2016 42.3417 14.5378 42.6582 14.9369 42.6582C15.3361 42.6582 15.6512 42.3417 15.6512 41.9409V40.9493C15.6512 40.8227 15.7773 40.7172 15.9033 40.7172C16.0294 40.7172 16.1344 40.8227 16.1344 40.9493V41.9409ZM16.8697 41.1814C16.7436 41.1814 16.6176 41.0759 16.6176 40.9282C16.6176 40.5274 16.3025 40.1898 15.9033 40.1898C15.5042 40.1898 15.168 40.5063 15.168 40.9071V40.9282V41.9198C15.168 42.0463 15.063 42.1729 14.9159 42.1729C14.7899 42.1729 14.6638 42.0674 14.6638 41.9198V40.9282C14.6848 40.2531 15.231 39.7046 15.9033 39.7257C16.5546 39.7257 17.1008 40.2742 17.1008 40.9282C17.1008 41.0759 16.9957 41.1814 16.8697 41.1814Z" fill="#4ABFA7"/>
<path id="Vector_24" d="M14.9159 43.1855C15.5882 43.1855 16.1344 42.637 16.1344 41.9619V40.9703C16.1344 40.8438 16.0294 40.7383 15.9033 40.7383C15.7773 40.7383 15.6512 40.8438 15.6512 40.9703V41.9619C15.6512 42.3628 15.3361 42.6792 14.9369 42.6792C14.5378 42.6792 14.2016 42.3628 14.2016 41.9619C14.2016 41.8353 14.0966 41.7087 13.9495 41.7087C13.8235 41.7087 13.6974 41.8142 13.6974 41.9619C13.6974 42.637 14.2437 43.1855 14.9159 43.1855Z" fill="white"/>
<path id="Vector_25" d="M15.9033 39.7889C15.231 39.7678 14.6848 40.3163 14.6638 40.9914V41.983C14.6638 42.1096 14.7689 42.2362 14.9159 42.2362C15.063 42.2362 15.168 42.1307 15.168 41.983V40.9914V40.9704C15.168 40.5695 15.5042 40.2531 15.9033 40.2531C16.3025 40.2531 16.6176 40.5906 16.6176 40.9914C16.6176 41.118 16.7226 41.2446 16.8697 41.2446C16.9957 41.2446 17.1218 41.1391 17.1218 40.9914C17.1008 40.3163 16.5546 39.7889 15.9033 39.7889Z" fill="white"/>
</g>
</g>
</g>
</svg>
